# xmcd
#
# Track frame offsets:
#	150
#	11770
#	22225
#	35070
#	49202
#	62657
#	75532
#	89112
#	101030
#	114755
#	128952
#	139392
#	150300
#	163142
#	173967
#	186467
#	198922
#	211292
#	222472
#	234995
#	246105
#
# Disc length: 3414 seconds
#
# Revision: 5
# Processed by: cddbd v1.5.2PL0 Copyright (c) Steve Scherf et al.
# Submitted via: EZCDAudioConverter 6.0.3.1
#
DISCID=340d5415
DTITLE=Various Artist - 21 Winners Country Legends
DYEAR=2003
DGENRE=Country
TTITLE0=Don Gibson - Sea of Heartbreak
TTITLE1=Connie Smith - Once a Day
TTITLE2=David Houston - My Elusive Dreams
TTITLE3=Jeanie Seely - Don't Touch Me
TTITLE4=Lynn Andreson - Top of the World
TTITLE5=Stonewall Jackson - Me and You and a Dog Named Boo
TTITLE6=Johnny Paycheck - She's All I Got
TTITLE7=Donna Fargo - The Happiest Girl in the Whole U.S.A.
TTITLE8=Jimmy Dean - Big Bad John
TTITLE9=Barbara Fairchild - Teddy Bear Song
TTITLE10=Faron Young - Hello Walls
TTITLE11=Ferlin Husky - Wings of a Dove
TTITLE12=Kitty Wells - Makin' Believe
TTITLE13=Tommy Collins -  You Better Not Do That
TTITLE14=Bobby Helms - Fraulein
TTITLE15=Johnny Russell  - Rednecks, White Socks and Blue Ribbon Beer
TTITLE16=Porter Wagoner - A Satisfied Mind
TTITLE17=Carl Smith - Hey Joe
TTITLE18=Tommy Cash - Six White Horses
TTITLE19=Faron Young - Wine Me Up
TTITLE20=Lynn Anderson - What a Man, My Man Is
EXTD=
EXTT0=
EXTT1=
EXTT2=
EXTT3=
EXTT4=
EXTT5=
EXTT6=
EXTT7=
EXTT8=
EXTT9=
EXTT10=
EXTT11=
EXTT12=
EXTT13=
EXTT14=
EXTT15=
EXTT16=
EXTT17=
EXTT18=
EXTT19=
EXTT20=
PLAYORDER=
